<svg xmlns="http://www.w3.org/2000/svg" viewBox="0 0 139.71 71.79"><defs><style>.cls-1{fill:#fff;}.cls-2{fill:#ffc000;}</style></defs><g id="Layer_2" data-name="Layer 2"><g id="Layer_1-2" data-name="Layer 1"><path class="cls-1" d="M26.33,55a.8.8,0,0,1,.58.78c0,2.86-.79,14.53-14.72,15.44C.3,72-1.67,55.66,1.12,47.1,4.4,36.93,19.3,35.87,24.57,46.62a.83.83,0,0,1-.49,1.16l-7.14,2a.77.77,0,0,1-1-.73c-.11-1.73-.61-5.09-2.74-4.39-2.91.89-1,21.14,1.7,21.51.91.13,2.41-2.13,3.12-4a.8.8,0,0,0-.9-1.1l-1,.29a.78.78,0,0,1-.95-.72L14.5,52.9a.78.78,0,0,1,.94-.87Z"/><path class="cls-1" d="M43.45,66.6,38,65.28a.77.77,0,0,0-.9.56l-1.15,4a.77.77,0,0,1-.75.57l-8.46-.3A.81.81,0,0,1,26,69L36,41.37a.76.76,0,0,1,.64-.52l11.52-1.22a.77.77,0,0,1,.81.6L56.15,69a.81.81,0,0,1-.74,1L45.1,70a.77.77,0,0,1-.75-.68l-.31-2A.78.78,0,0,0,43.45,66.6Zm-.85-9L42,53.8a.76.76,0,0,0-1.49-.11l-1,3.43a.82.82,0,0,0,.55,1l1.56.4A.78.78,0,0,0,42.6,57.63Z"/><path class="cls-1" d="M79.14,69.21l1-7.92a.76.76,0,0,0-1.45-.45h0v.09l-1.92,4.4a.75.75,0,0,1-.66.47l-3.9.19a.76.76,0,0,1-.68-.39l-3.1-5.39a.76.76,0,0,0-1.41.47L67.43,69a.8.8,0,0,1-.72.86l-7,.4a.78.78,0,0,1-.8-.78L57.79,42.79a.8.8,0,0,1,.55-.82l11.41-3.5a.76.76,0,0,1,.94.51l3.14,9.74a.73.73,0,0,0,1.36.16c2-3.35,3.89-6.71,4.54-7.85a.75.75,0,0,1,.68-.38l8.58.27a.79.79,0,0,1,.74.81l.21,27.43a.79.79,0,0,1-.75.82l-9.28.15A.8.8,0,0,1,79.14,69.21Z"/><path class="cls-1" d="M113.09,61.28l-.46,8.19a.8.8,0,0,1-.76.77l-18.41.12a.78.78,0,0,1-.76-.79c-.11-4.31-.62-24.65-.73-29.07a.8.8,0,0,1,.77-.84l17.55.29a.8.8,0,0,1,.75.88L110.41,50a.77.77,0,0,1-1,.7l-6.58-2.74a.78.78,0,0,0-1,.83l.22,3a.77.77,0,0,0,1,.7l2.82-1.14a.74.74,0,0,1,1,.39l3,6.37a.83.83,0,0,1-.52,1.17l-6,1.39a.8.8,0,0,0-.58,1l.37,2a.76.76,0,0,0,1,.58L112,60.48A.77.77,0,0,1,113.09,61.28Z"/><path class="cls-1" d="M126.17,50.24C130.77,53.81,140,56,139.71,61c-.65,11.93-22,16-24.41,2a.81.81,0,0,1,.69-1l7.05-.62a.74.74,0,0,1,.71.38c1.31,2.29,3.3,2.3,4.65,1.57,6.47-3.4-10.94-1.45-11.89-13.18a10.22,10.22,0,0,1,4.67-10.21l.09,0c6.21-3.49,17.37-1.5,17.53,8a.82.82,0,0,1-.58.82l-7.89,2a.78.78,0,0,1-.91-.56C126.83,41.24,122.62,47.49,126.17,50.24Z"/><path class="cls-2" d="M130,7.86l-4.4-6.46A3.18,3.18,0,0,0,122.74,0L107.61.9a3.17,3.17,0,0,0-2.73,1.89L99.12,15.7A3.12,3.12,0,0,0,98.84,17v10.5a3.19,3.19,0,0,0,1.9,2.92l9.51,4.22a3.13,3.13,0,0,0,2,.2l14.7-3.24a3.2,3.2,0,0,0,2.5-2.94l1.09-18.83A3.17,3.17,0,0,0,130,7.86Zm-4.33,15-3,.12a.82.82,0,0,0-.8.81c0,.19,0,.39,0,.58a41.4,41.4,0,0,0,.67,5.41.85.85,0,0,1-.83.95h-5.82a.84.84,0,0,1-.83-.72h.06c-.1-2-.09-3.86,0-5.75,0-.14,0-.29,0-.43a.83.83,0,0,0-.85-.85l-3,0-3,.05h-3.58s0-.06,0-.08l0-.69.07-1.37.16-2.73c0-.46.08-.92.12-1.38l.06-.69,0-.39c.06-.49.13-1,.19-1.46.14-1,.3-1.93.49-2.9A67.5,67.5,0,0,1,108,4.73a.83.83,0,0,1,1.2-.46L114,7.06a.82.82,0,0,1,.36,1c-.59,1.47-1.59,2.95-1.87,4.45-.17.86-.32,1.73-.44,2.6-.06.43-.12.87-.17,1.31l0,.3,2.74,0a.84.84,0,0,0,.82-.78c.08-1.26.16-2.52.26-3.78l.26-3,.15-1.53.08-.78.06-.43,0-.26,0-.2,0-.14,0-.09L123,7.1v.05l0,.32-.08.7-.15,1.46-.25,3c-.07,1-.15,2.06-.22,3.09a.84.84,0,0,0,.93.88l2-.24a.85.85,0,0,1,.93.77l.35,4.92A.84.84,0,0,1,125.64,22.9Z"/><path class="cls-1" d="M21.5,33.48C3.94,31.36,7.63,4,17.32,2c9.46-2,20.22-.35,21.25,10.41a.75.75,0,0,1-.69.82l-9.55.7a.75.75,0,0,1-.8-.77C27.6,11,27.53,5.8,25,6.34,21.7,7,22,28,25,28.61c2.35.51,2.55-4.74,2.54-6.81a.76.76,0,0,1,.81-.75l9.6.7a.75.75,0,0,1,.69.8C38.4,25.38,36.63,35.3,21.5,33.48Z"/><path class="cls-1" d="M57.19,10.06l.6,23.13A.75.75,0,0,1,57,34c-2.41-.06-9.55-.17-10.16.24S48,16.34,48.37,11.1a.74.74,0,0,0-.95-.77L41.1,12.17a.76.76,0,0,1-1-.65l-.82-9.19a.75.75,0,0,1,.75-.81l23,.08h.51a.75.75,0,0,1,.74.65l1,7.43a.75.75,0,0,1-.88.84L58.07,9.31A.74.74,0,0,0,57.19,10.06Z"/><path class="cls-1" d="M94.23,3,91,32.5a.76.76,0,0,1-.71.68L79,33.7a.77.77,0,0,1-.74-1L82.41,20a.75.75,0,0,0-1.21-.82c-1.83,1.68-4.58,3.63-7.49,3.69C69.18,23,67.09,7.25,66.65,3.37a.75.75,0,0,1,.74-.86h12a.77.77,0,0,1,.66,1.14c-1.61,3-5.78,11.18-5,12.3S83.67,5.3,85,3.23a.79.79,0,0,1,.55-.34l7.87-.79A.75.75,0,0,1,94.23,3Z"/></g></g></svg>